HIERARCHY
ROOT reference
{
  OFFSET 0 0 0
  CHANNELS 6 Xposition Yposition Zposition Zrotation Xrotation Yrotation
  JOINT Hips
  {
    OFFSET 350.331 86.7696 215.823
    CHANNELS 3 Zrotation Xrotation Yrotation
    JOINT RightUpLeg
    {
      OFFSET -9.29271 -1.56052 -0.0234997
      CHANNELS 3 Zrotation Xrotation Yrotation
      JOINT RightLeg
      {
        OFFSET -0.0199852 -41.8973 0.0465042
        CHANNELS 3 Zrotation Xrotation Yrotation
        JOINT RightFoot
        {
          OFFSET -0.344404 -43.5008 0.46033
          CHANNELS 3 Zrotation Xrotation Yrotation
          End Site
          {
            OFFSET 0 -7.69 17.5
          }
        }
      }
    }
    JOINT LeftUpLeg
    {
      OFFSET 9.27671 -1.61046 0.00923455
      CHANNELS 3 Zrotation Xrotation Yrotation
      JOINT LeftLeg
      {
        OFFSET 0.0572944 -41.8832 0.025786
        CHANNELS 3 Zrotation Xrotation Yrotation
        JOINT LeftFoot
        {
          OFFSET 0.630082 -40.4663 0.064708
          CHANNELS 3 Zrotation Xrotation Yrotation
          End Site
          {
            OFFSET 0 -7.69 17.5
          }
        }
      }
    }
    JOINT Spine
    {
      OFFSET 0.0336257 14.3009 0.0467062
      CHANNELS 3 Zrotation Xrotation Yrotation
      JOINT Spine1
      {
        OFFSET 0.0295985 9.72711 0.0239471
        CHANNELS 3 Zrotation Xrotation Yrotation
        JOINT Spine2
        {
          OFFSET 0.0515174 10.1206 0.00128176
          CHANNELS 3 Zrotation Xrotation Yrotation
          JOINT Spine3
          {
            OFFSET 0.0546141 9.71668 0.0122483
            CHANNELS 3 Zrotation Xrotation Yrotation
            JOINT Neck
            {
              OFFSET 0.0872189 10.3831 0.0511468
              CHANNELS 3 Zrotation Xrotation Yrotation
              JOINT Head
              {
                OFFSET 0.0544 9.47189 0.0313815
                CHANNELS 3 Zrotation Xrotation Yrotation
                End Site
                {
                  OFFSET 0 15.95 0
                }
              }
            }
            JOINT RightShoulder
            {
              OFFSET -3.15364 6.93551 0.0260198
              CHANNELS 3 Zrotation Xrotation Yrotation
              JOINT RightArm
              {
                OFFSET -12.7567 0.0626665 0.0664987
                CHANNELS 3 Zrotation Xrotation Yrotation
                JOINT RightForeArm
                {
                  OFFSET -26.5087 -0.073346 0.274032
                  CHANNELS 3 Zrotation Xrotation Yrotation
                  JOINT RightHand
                  {
                    OFFSET -26.0005 -0.196673 0.105827
                    CHANNELS 3 Zrotation Xrotation Yrotation
                    JOINT RightHandThumb1
                    {
                      OFFSET -2.48905 0.190105 3.12053
                      CHANNELS 3 Zrotation Xrotation Yrotation
                      JOINT RightHandThumb2
                      {
                        OFFSET -3.68274 0 0
                        CHANNELS 3 Zrotation Xrotation Yrotation
                        JOINT RightHandThumb3
                        {
                          OFFSET -2.55832 0 0
                          CHANNELS 3 Zrotation Xrotation Yrotation
                          End Site
                          {
                            OFFSET -2.194 0 0
                          }
                        }
                      }
                    }
                    JOINT RightInHandIndex
                    {
                      OFFSET -3.22368 0.508421 1.97842
                      CHANNELS 3 Zrotation Xrotation Yrotation
                      JOINT RightHandIndex1
                      {
                        OFFSET -5.21684 -0.091368 0.999158
                        CHANNELS 3 Zrotation Xrotation Yrotation
                        JOINT RightHandIndex2
                        {
                          OFFSET -3.61937 0 0
                          CHANNELS 3 Zrotation Xrotation Yrotation
                          JOINT RightHandIndex3
                          {
                            OFFSET -2.0521 0 0
                            CHANNELS 3 Zrotation Xrotation Yrotation
                            End Site
                            {
                              OFFSET -1.805 0 0
                            }
                          }
                        }
                      }
                    }
                    JOINT RightInHandMiddle
                    {
                      OFFSET -3.38211 0.517263 0.756737
                      CHANNELS 3 Zrotation Xrotation Yrotation
                      JOINT RightHandMiddle1
                      {
                        OFFSET -5.17411 -0.084 0.313895
                        CHANNELS 3 Zrotation Xrotation Yrotation
                        JOINT RightHandMiddle2
                        {
                          OFFSET -3.94947 0 0
                          CHANNELS 3 Zrotation Xrotation Yrotation
                          JOINT RightHandMiddle3
                          {
                            OFFSET -2.47579 0 0
                            CHANNELS 3 Zrotation Xrotation Yrotation
                            End Site
                            {
                              OFFSET -1.975 0 0
                            }
                          }
                        }
                      }
                    }
                    JOINT RightInHandRing
                    {
                      OFFSET -3.36516 0.537895 -0.128947
                      CHANNELS 3 Zrotation Xrotation Yrotation
                      JOINT RightHandRing1
                      {
                        OFFSET -4.63474 -0.022105 -0.478947
                        CHANNELS 3 Zrotation Xrotation Yrotation
                        JOINT RightHandRing2
                        {
                          OFFSET -3.44238 0 0
                          CHANNELS 3 Zrotation Xrotation Yrotation
                          JOINT RightHandRing3
                          {
                            OFFSET -2.3881 0 0
                            CHANNELS 3 Zrotation Xrotation Yrotation
                            End Site
                            {
                              OFFSET -1.857 0 0
                            }
                          }
                        }
                      }
                    }
                    JOINT RightInHandPinky
                    {
                      OFFSET -3.16105 0.469368 -1.20179
                      CHANNELS 3 Zrotation Xrotation Yrotation
                      JOINT RightHandPinky1
                      {
                        OFFSET -4.14105 -0.022105 -1.09053
                        CHANNELS 3 Zrotation Xrotation Yrotation
                        JOINT RightHandPinky2
                        {
                          OFFSET -2.75653 0 0
                          CHANNELS 3 Zrotation Xrotation Yrotation
                          JOINT RightHandPinky3
                          {
                            OFFSET -1.74189 0 0
                            CHANNELS 3 Zrotation Xrotation Yrotation
                            End Site
                            {
                              OFFSET -1.645 0 0
                            }
                          }
                        }
                      }
                    }
                  }
                }
              }
            }
            JOINT LeftShoulder
            {
              OFFSET 3.27252 6.91581 -0.0198585
              CHANNELS 3 Zrotation Xrotation Yrotation
              JOINT LeftArm
              {
                OFFSET 12.8319 -0.0466028 -0.0574599
                CHANNELS 3 Zrotation Xrotation Yrotation
                JOINT LeftForeArm
                {
                  OFFSET 26.4942 -0.039105 -0.0936
                  CHANNELS 3 Zrotation Xrotation Yrotation
                  JOINT LeftHand
                  {
                    OFFSET 26.0008 0.022674 -0.016655
                    CHANNELS 3 Zrotation Xrotation Yrotation
                    JOINT LeftHandThumb1
                    {
                      OFFSET 2.48905 0.190105 3.12053
                      CHANNELS 3 Zrotation Xrotation Yrotation
                      JOINT LeftHandThumb2
                      {
                        OFFSET 3.68274 0 0
                        CHANNELS 3 Zrotation Xrotation Yrotation
                        JOINT LeftHandThumb3
                        {
                          OFFSET 2.55832 0 0
                          CHANNELS 3 Zrotation Xrotation Yrotation
                          End Site
                          {
                            OFFSET 2.194 0 0
                          }
                        }
                      }
                    }
                    JOINT LeftInHandIndex
                    {
                      OFFSET 3.22368 0.508421 1.97842
                      CHANNELS 3 Zrotation Xrotation Yrotation
                      JOINT LeftHandIndex1
                      {
                        OFFSET 5.21684 -0.091368 0.999158
                        CHANNELS 3 Zrotation Xrotation Yrotation
                        JOINT LeftHandIndex2
                        {
                          OFFSET 3.61937 0 0
                          CHANNELS 3 Zrotation Xrotation Yrotation
                          JOINT LeftHandIndex3
                          {
                            OFFSET 2.0521 0 0
                            CHANNELS 3 Zrotation Xrotation Yrotation
                            End Site
                            {
                              OFFSET 1.805 0 0
                            }
                          }
                        }
                      }
                    }
                    JOINT LeftInHandMiddle
                    {
                      OFFSET 3.38211 0.517263 0.756737
                      CHANNELS 3 Zrotation Xrotation Yrotation
                      JOINT LeftHandMiddle1
                      {
                        OFFSET 5.17411 -0.084 0.313895
                        CHANNELS 3 Zrotation Xrotation Yrotation
                        JOINT LeftHandMiddle2
                        {
                          OFFSET 3.94947 0 0
                          CHANNELS 3 Zrotation Xrotation Yrotation
                          JOINT LeftHandMiddle3
                          {
                            OFFSET 2.47579 0 0
                            CHANNELS 3 Zrotation Xrotation Yrotation
                            End Site
                            {
                              OFFSET 1.975 0 0
                            }
                          }
                        }
                      }
                    }
                    JOINT LeftInHandRing
                    {
                      OFFSET 3.36516 0.537895 -0.128947
                      CHANNELS 3 Zrotation Xrotation Yrotation
                      JOINT LeftHandRing1
                      {
                        OFFSET 4.63474 -0.022105 -0.478947
                        CHANNELS 3 Zrotation Xrotation Yrotation
                        JOINT LeftHandRing2
                        {
                          OFFSET 3.44238 0 0
                          CHANNELS 3 Zrotation Xrotation Yrotation
                          JOINT LeftHandRing3
                          {
                            OFFSET 2.3881 0 0
                            CHANNELS 3 Zrotation Xrotation Yrotation
                            End Site
                            {
                              OFFSET 1.857 0 0
                            }
                          }
                        }
                      }
                    }
                    JOINT LeftInHandPinky
                    {
                      OFFSET 3.16105 0.469368 -1.20179
                      CHANNELS 3 Zrotation Xrotation Yrotation
                      JOINT LeftHandPinky1
                      {
                        OFFSET 4.14105 -0.022105 -1.09053
                        CHANNELS 3 Zrotation Xrotation Yrotation
                        JOINT LeftHandPinky2
                        {
                          OFFSET 2.75653 0 0
                          CHANNELS 3 Zrotation Xrotation Yrotation
                          JOINT LeftHandPinky3
                          {
                            OFFSET 1.74189 0 0
                            CHANNELS 3 Zrotation Xrotation Yrotation
                            End Site
                            {
                              OFFSET 1.645 0 0
                            }
                          }
                        }
                      }
                    }
                  }
                }
              }
            }
          }
        }
      }
    }
  }
}
MOTION
Frames: 2
Frame Time: 0.00833333
6.000000000000000000e+02 0.000000000000000000e+00 0.000000000000000000e+00 0.000000000000000000e+00 0.000000000000000000e+00 0.000000000000000000e+00 8.654830969969584675e-02 1.049497927741403380e+00 4.208485325477631100e-01 1.159809742292002399e+00 1.255889359154465090e-01 6.362351784569166835e-01 -3.075539456257522786e-01 1.324127675524525261e+00 -6.500382646384752494e-01 -2.936559803977249472e-01 -1.020875896578220532e+00 1.687924819175418423e-01 4.697235389846224907e-01 9.511486693309896268e-01 1.939631288930304120e-01 3.779689638605180924e-01 -4.874940745340913817e-01 -8.773506084078458445e-01 -1.690277089577154390e+00 -5.524035139792774496e-01 -7.915374298040116496e-01 -2.357184374940544669e-01 -7.598983457819379339e-01 1.164684086108933148e+00 -8.606107323344411308e-02 -7.980980562238268461e-02 3.027578643596849917e-01 -1.223930735037337958e-01 -9.872936432538098606e-02 3.434184834429658273e-01 6.694777629702794441e-02 -6.260185021201103428e-02 9.083685946877015360e-03 -1.440519408211150820e-01 -6.351338231116726574e-01 2.982212010753798048e-01 8.387838501181230644e-01 3.936855140694291988e-01 2.671472153571049502e-01 -4.439081144515717448e-01 -2.864332101031232813e+00 1.269111136616842161e+00 -6.614429418777056924e+00 2.512230826074902446e+00 5.356190304834353100e+00 -1.868489735771943572e+01 -6.592095873746825596e+00 -1.738113641650026864e+01 6.816321464854100398e-01 -4.908825565207776132e-01 -2.693474796400392446e-01 0.000000000000000000e+00 0.000000000000000000e+00 0.000000000000000000e+00 -8.200916838972994339e-15 -2.451873423519396745e-15 0.000000000000000000e+00 3.515254099607123385e-17 -4.048880850436675805e-15 0.000000000000000000e+00 -3.845007058282103791e-16 3.464146828614532540e-15 -2.766706912738221113e-15 0.000000000000000000e+00 0.000000000000000000e+00 0.000000000000000000e+00 0.000000000000000000e+00 1.909552702242382625e-16 -2.868855400695889979e-15 0.000000000000000000e+00 -7.902897642403962812e-16 -6.525043663515782022e-15 -3.845007058282103791e-16 3.464146828614532540e-15 -2.766706912738221113e-15 0.000000000000000000e+00 -4.457257925666751305e-16 -2.515836772779525824e-15 0.000000000000000000e+00 -3.273830133024057030e-15 -6.907624395378275385e-15 0.000000000000000000e+00 6.813390382890814110e-16 -3.391465995447384512e-15 -3.845007058282103791e-16 3.464146828614532540e-15 -2.766706912738221113e-15 0.000000000000000000e+00 0.000000000000000000e+00 0.000000000000000000e+00 0.000000000000000000e+00 -3.091864827012741162e-15 -5.579810139809371187e-15 0.000000000000000000e+00 -6.496348571708355405e-16 -3.229437736030684921e-15 -3.845007058282103791e-16 3.464146828614532540e-15 -2.766706912738221113e-15 0.000000000000000000e+00 0.000000000000000000e+00 0.000000000000000000e+00 0.000000000000000000e+00 -2.121826964806411721e-15 -4.077311396766583521e-15 0.000000000000000000e+00 5.358824758437018554e-15 -3.373149933182195086e-15 -2.409371210043199429e+00 -1.031986129315937140e+00 -1.382988117372845105e+00 -3.347363645542833499e+00 -2.395623072312888180e+00 3.092058661222636395e+00 1.126428895891446302e+01 -1.169161079748875842e+01 8.219671764895347010e+00 -1.971178358444013234e+00 -2.067978162065899350e-01 1.475842592079728566e-01 0.000000000000000000e+00 0.000000000000000000e+00 0.000000000000000000e+00 -4.135908582813705969e-16 4.149472642785102490e-16 0.000000000000000000e+00 -3.310753136223007186e-15 4.893838834428446681e-15 0.000000000000000000e+00 2.700362923243965479e-15 1.063682970272019177e-15 -1.621014071710600838e-15 0.000000000000000000e+00 0.000000000000000000e+00 0.000000000000000000e+00 0.000000000000000000e+00 -1.792898625166485797e-15 -4.146433113783929146e-15 0.000000000000000000e+00 -2.673734814452349175e-15 2.509881449242468910e-15 2.700362923243965479e-15 1.063682970272019177e-15 -1.621014071710600838e-15 0.000000000000000000e+00 7.487934884252550035e-16 -3.199493043920703873e-17 0.000000000000000000e+00 6.596719768013051740e-16 -5.525518533107544944e-16 0.000000000000000000e+00 -2.287688678958443622e-16 4.453768910013966772e-15 2.700362923243965479e-15 1.063682970272019177e-15 -1.621014071710600838e-15 0.000000000000000000e+00 0.000000000000000000e+00 0.000000000000000000e+00 0.000000000000000000e+00 1.923485321615589577e-15 8.749453771812285974e-16 0.000000000000000000e+00 2.187969230159147633e-15 -2.799313691170019808e-15 2.700362923243965479e-15 1.063682970272019177e-15 -1.621014071710600838e-15 0.000000000000000000e+00 0.000000000000000000e+00 0.000000000000000000e+00 0.000000000000000000e+00 -8.370197978119629119e-16 1.161126789352856164e-16 0.000000000000000000e+00 -4.690494459062891626e-16 2.384730383433144679e-15
6.000000000000000000e+02 0.000000000000000000e+00 0.000000000000000000e+00 0.000000000000000000e+00 0.000000000000000000e+00 0.000000000000000000e+00 7.400556669147603794e-02 1.073313279766874295e+00 4.847924013706023105e-01 1.111631153861918575e+00 1.705643358866132386e-01 5.990834812585419389e-01 -2.966210799440123225e-01 1.322637250958105026e+00 -6.506329285865153356e-01 -2.718744973990760982e-01 -1.048506870054223716e+00 1.052476582600192917e-01 4.337559274486986194e-01 9.133748613285268547e-01 1.369245924992816277e-01 4.081573582481137219e-01 -5.044036081682512496e-01 -9.077655425685281498e-01 -1.665493389115233702e+00 -5.084987189975654909e-01 -7.927374222897535239e-01 -2.254989295101506031e-01 -7.450978875301329518e-01 1.112766450499734550e+00 -8.255733759849333275e-02 -7.600899857955223382e-02 2.898179641087849090e-01 -1.166552095544833717e-01 -9.252618997607969797e-02 3.260931831603002262e-01 7.042886354471623866e-02 -6.015703433609902867e-02 3.660818751219332978e-03 -1.375927987965931132e-01 -6.204875489838619362e-01 3.463497080510645754e-01 9.052726544209068749e-01 4.051508142595666162e-01 1.372850476467509795e-01 -4.417284180144949723e-01 -2.841723418343580221e+00 1.293798550595899988e+00 -6.694511820433035609e+00 2.584731715147276176e+00 5.328014971759648333e+00 -1.859507258309393052e+01 -6.748994840977955434e+00 -1.739821084096888981e+01 5.515939316869360454e-01 -4.531436961885279557e-01 -4.330910820296012265e-01 0.000000000000000000e+00 0.000000000000000000e+00 0.000000000000000000e+00 -7.211418359828757470e-15 -2.128056742414882211e-15 0.000000000000000000e+00 1.523838489512172955e-15 -3.828168558384614326e-15 0.000000000000000000e+00 -3.185112557666522950e-16 3.462874060883860526e-15 -2.490009739098747768e-15 0.000000000000000000e+00 0.000000000000000000e+00 0.000000000000000000e+00 0.000000000000000000e+00 1.952074625746407706e-16 -3.140347806426308085e-15 0.000000000000000000e+00 -6.895637118931865269e-16 -5.903566765417013561e-15 -3.185112557666522950e-16 3.462874060883860526e-15 -2.490009739098747768e-15 0.000000000000000000e+00 -2.245875867969220556e-17 -1.737721944144669880e-15 0.000000000000000000e+00 -3.101434838677273440e-15 -6.681844136131660185e-15 0.000000000000000000e+00 7.482274056604145354e-16 -2.767375701989017715e-15 -3.185112557666522950e-16 3.462874060883860526e-15 -2.490009739098747768e-15 0.000000000000000000e+00 0.000000000000000000e+00 0.000000000000000000e+00 0.000000000000000000e+00 -3.160926228206995050e-15 -5.666366341988254966e-15 0.000000000000000000e+00 -7.729502515614280084e-16 -3.433137785912285702e-15 -3.185112557666522950e-16 3.462874060883860526e-15 -2.490009739098747768e-15 0.000000000000000000e+00 0.000000000000000000e+00 0.000000000000000000e+00 0.000000000000000000e+00 -2.229390829613674671e-15 -6.090900786174407490e-15 0.000000000000000000e+00 5.271966943089424751e-15 -3.554263578990372860e-15 -2.356568259317494807e+00 -1.034752663751395296e+00 -1.301796193739920060e+00 -3.373854649937456873e+00 -2.384626448713620839e+00 3.139032557532610568e+00 1.088972058389598985e+01 -1.175929733702246338e+01 7.992693217137446737e+00 -1.955155838780477273e+00 -2.112087359045232149e-01 1.169086617074266976e-01 0.000000000000000000e+00 0.000000000000000000e+00 0.000000000000000000e+00 -2.480242767954540808e-16 5.343514992726837759e-16 0.000000000000000000e+00 -3.242183956548975164e-15 4.967869243256719301e-15 0.000000000000000000e+00 2.530378367520520449e-15 1.135402888106349201e-15 -1.995707559917910628e-15 0.000000000000000000e+00 0.000000000000000000e+00 0.000000000000000000e+00 0.000000000000000000e+00 -2.082027958974582590e-15 -4.229062749752175039e-15 0.000000000000000000e+00 -2.573387003025225109e-15 2.612555074626641299e-15 2.530378367520520449e-15 1.135402888106349201e-15 -1.995707559917910628e-15 0.000000000000000000e+00 5.326971315974047600e-16 -1.677425033990424718e-16 0.000000000000000000e+00 4.870968667593822175e-16 2.548086663738413373e-16 0.000000000000000000e+00 -3.407572113331423387e-16 5.467967949260978496e-15 2.530378367520520449e-15 1.135402888106349201e-15 -1.995707559917910628e-15 0.000000000000000000e+00 0.000000000000000000e+00 0.000000000000000000e+00 0.000000000000000000e+00 1.975535400870751955e-15 1.937182204173975514e-15 0.000000000000000000e+00 1.864752191104904398e-15 -2.037834309897774509e-15 2.530378367520520449e-15 1.135402888106349201e-15 -1.995707559917910628e-15 0.000000000000000000e+00 0.000000000000000000e+00 0.000000000000000000e+00 0.000000000000000000e+00 -5.227548359715027955e-16 1.012034048643371111e-15 0.000000000000000000e+00 -5.934848821919538006e-16 2.736829118083328820e-15
